<svg width="32" height="32" viewBox="0 0 32 32" fill="none" xmlns="http://www.w3.org/2000/svg">
<rect width="32" height="32" rx="8" fill="#FAF5FC"/>
<path d="M13.1686 16.0771C13.1686 14.4687 14.473 13.1645 16.0824 13.1645C17.6917 13.1645 18.9968 14.4687 18.9968 16.0771C18.9968 17.6855 17.6917 18.9898 16.0824 18.9898C14.473 18.9898 13.1686 17.6855 13.1686 16.0771ZM11.5932 16.0771C11.5932 18.555 13.603 20.5636 16.0824 20.5636C18.5617 20.5636 20.5715 18.555 20.5715 16.0771C20.5715 13.5992 18.5617 11.5906 16.0824 11.5906C13.603 11.5906 11.5932 13.5992 11.5932 16.0771ZM19.7001 11.4127C19.7001 11.6201 19.7615 11.8228 19.8767 11.9953C19.9919 12.1678 20.1557 12.3022 20.3474 12.3817C20.539 12.4611 20.75 12.4819 20.9535 12.4416C21.157 12.4012 21.344 12.3014 21.4908 12.1548C21.6376 12.0083 21.7375 11.8215 21.7781 11.6181C21.8187 11.4147 21.798 11.2039 21.7186 11.0123C21.6393 10.8207 21.5049 10.6569 21.3324 10.5416C21.16 10.4263 20.9572 10.3648 20.7497 10.3647H20.7492C20.4711 10.3648 20.2044 10.4753 20.0077 10.6718C19.811 10.8683 19.7004 11.1348 19.7001 11.4127V11.4127ZM12.5504 23.189C11.698 23.1502 11.2347 23.0083 10.9269 22.8885C10.5187 22.7297 10.2275 22.5405 9.92126 22.2349C9.61506 21.9293 9.42553 21.6386 9.26732 21.2306C9.1473 20.9231 9.00533 20.4599 8.96658 19.6081C8.9242 18.6871 8.91573 18.4105 8.91573 16.0772C8.91573 13.7439 8.9249 13.468 8.96658 12.5463C9.0054 11.6944 9.14842 11.2322 9.26732 10.9237C9.42623 10.5158 9.61548 10.2247 9.92126 9.91874C10.227 9.61272 10.518 9.4233 10.9269 9.26519C11.2346 9.14524 11.698 9.00335 12.5504 8.96463C13.4719 8.92227 13.7487 8.91381 16.0824 8.91381C18.416 8.91381 18.6931 8.92297 19.6154 8.96463C20.4677 9.00342 20.9302 9.14636 21.2389 9.26519C21.6471 9.4233 21.9383 9.61314 22.2445 9.91874C22.5507 10.2243 22.7395 10.5158 22.8984 10.9237C23.0184 11.2313 23.1604 11.6944 23.1992 12.5463C23.2416 13.468 23.25 13.7439 23.25 16.0772C23.25 18.4105 23.2416 18.6863 23.1992 19.6081C23.1604 20.4599 23.0177 20.9229 22.8984 21.2306C22.7395 21.6386 22.5503 21.9296 22.2445 22.2349C21.9387 22.5402 21.6471 22.7297 21.2389 22.8885C20.9312 23.0084 20.4677 23.1503 19.6154 23.189C18.6938 23.2314 18.417 23.2399 16.0824 23.2399C13.7477 23.2399 13.4716 23.2314 12.5504 23.189V23.189ZM12.478 7.39276C11.5473 7.43511 10.9113 7.5826 10.3559 7.79859C9.78075 8.02163 9.29383 8.32086 8.80726 8.80638C8.32068 9.29189 8.02204 9.77929 7.79886 10.3541C7.58275 10.9095 7.43517 11.5448 7.39279 12.4749C7.34971 13.4065 7.33984 13.7043 7.33984 16.0771C7.33984 18.4499 7.34971 18.7477 7.39279 19.6793C7.43517 20.6095 7.58275 21.2447 7.79886 21.8001C8.02204 22.3746 8.32075 22.8625 8.80726 23.3478C9.29376 23.8331 9.78075 24.132 10.3559 24.3556C10.9124 24.5716 11.5473 24.7191 12.478 24.7615C13.4106 24.8038 13.7082 24.8144 16.0824 24.8144C18.4565 24.8144 18.7546 24.8045 19.6867 24.7615C20.6175 24.7191 21.253 24.5716 21.8088 24.3556C22.3836 24.132 22.8709 23.8334 23.3574 23.3478C23.844 22.8623 24.142 22.3746 24.3658 21.8001C24.582 21.2447 24.7302 20.6094 24.7719 19.6793C24.8143 18.747 24.8242 18.4499 24.8242 16.0771C24.8242 13.7043 24.8143 13.4065 24.7719 12.4749C24.7295 11.5447 24.582 10.9092 24.3658 10.3541C24.142 9.77964 23.8433 9.29266 23.3574 8.80638C22.8716 8.3201 22.3836 8.02163 21.8095 7.79859C21.253 7.5826 20.6174 7.43442 19.6874 7.39276C18.7553 7.3504 18.4572 7.33984 16.0831 7.33984C13.7089 7.33984 13.4106 7.3497 12.478 7.39276Z" fill="url(#paint0_radial_7482_105164)"/>
<path d="M13.1686 16.0771C13.1686 14.4687 14.473 13.1645 16.0824 13.1645C17.6917 13.1645 18.9968 14.4687 18.9968 16.0771C18.9968 17.6855 17.6917 18.9898 16.0824 18.9898C14.473 18.9898 13.1686 17.6855 13.1686 16.0771ZM11.5932 16.0771C11.5932 18.555 13.603 20.5636 16.0824 20.5636C18.5617 20.5636 20.5715 18.555 20.5715 16.0771C20.5715 13.5992 18.5617 11.5906 16.0824 11.5906C13.603 11.5906 11.5932 13.5992 11.5932 16.0771ZM19.7001 11.4127C19.7001 11.6201 19.7615 11.8228 19.8767 11.9953C19.9919 12.1678 20.1557 12.3022 20.3474 12.3817C20.539 12.4611 20.75 12.4819 20.9535 12.4416C21.157 12.4012 21.344 12.3014 21.4908 12.1548C21.6376 12.0083 21.7375 11.8215 21.7781 11.6181C21.8187 11.4147 21.798 11.2039 21.7186 11.0123C21.6393 10.8207 21.5049 10.6569 21.3324 10.5416C21.16 10.4263 20.9572 10.3648 20.7497 10.3647H20.7492C20.4711 10.3648 20.2044 10.4753 20.0077 10.6718C19.811 10.8683 19.7004 11.1348 19.7001 11.4127V11.4127ZM12.5504 23.189C11.698 23.1502 11.2347 23.0083 10.9269 22.8885C10.5187 22.7297 10.2275 22.5405 9.92126 22.2349C9.61506 21.9293 9.42553 21.6386 9.26732 21.2306C9.1473 20.9231 9.00533 20.4599 8.96658 19.6081C8.9242 18.6871 8.91573 18.4105 8.91573 16.0772C8.91573 13.7439 8.9249 13.468 8.96658 12.5463C9.0054 11.6944 9.14842 11.2322 9.26732 10.9237C9.42623 10.5158 9.61548 10.2247 9.92126 9.91874C10.227 9.61272 10.518 9.4233 10.9269 9.26519C11.2346 9.14524 11.698 9.00335 12.5504 8.96463C13.4719 8.92227 13.7487 8.91381 16.0824 8.91381C18.416 8.91381 18.6931 8.92297 19.6154 8.96463C20.4677 9.00342 20.9302 9.14636 21.2389 9.26519C21.6471 9.4233 21.9383 9.61314 22.2445 9.91874C22.5507 10.2243 22.7395 10.5158 22.8984 10.9237C23.0184 11.2313 23.1604 11.6944 23.1992 12.5463C23.2416 13.468 23.25 13.7439 23.25 16.0772C23.25 18.4105 23.2416 18.6863 23.1992 19.6081C23.1604 20.4599 23.0177 20.9229 22.8984 21.2306C22.7395 21.6386 22.5503 21.9296 22.2445 22.2349C21.9387 22.5402 21.6471 22.7297 21.2389 22.8885C20.9312 23.0084 20.4677 23.1503 19.6154 23.189C18.6938 23.2314 18.417 23.2399 16.0824 23.2399C13.7477 23.2399 13.4716 23.2314 12.5504 23.189V23.189ZM12.478 7.39276C11.5473 7.43511 10.9113 7.5826 10.3559 7.79859C9.78075 8.02163 9.29383 8.32086 8.80726 8.80638C8.32068 9.29189 8.02204 9.77929 7.79886 10.3541C7.58275 10.9095 7.43517 11.5448 7.39279 12.4749C7.34971 13.4065 7.33984 13.7043 7.33984 16.0771C7.33984 18.4499 7.34971 18.7477 7.39279 19.6793C7.43517 20.6095 7.58275 21.2447 7.79886 21.8001C8.02204 22.3746 8.32075 22.8625 8.80726 23.3478C9.29376 23.8331 9.78075 24.132 10.3559 24.3556C10.9124 24.5716 11.5473 24.7191 12.478 24.7615C13.4106 24.8038 13.7082 24.8144 16.0824 24.8144C18.4565 24.8144 18.7546 24.8045 19.6867 24.7615C20.6175 24.7191 21.253 24.5716 21.8088 24.3556C22.3836 24.132 22.8709 23.8334 23.3574 23.3478C23.844 22.8623 24.142 22.3746 24.3658 21.8001C24.582 21.2447 24.7302 20.6094 24.7719 19.6793C24.8143 18.747 24.8242 18.4499 24.8242 16.0771C24.8242 13.7043 24.8143 13.4065 24.7719 12.4749C24.7295 11.5447 24.582 10.9092 24.3658 10.3541C24.142 9.77964 23.8433 9.29266 23.3574 8.80638C22.8716 8.3201 22.3836 8.02163 21.8095 7.79859C21.253 7.5826 20.6174 7.43442 19.6874 7.39276C18.7553 7.3504 18.4572 7.33984 16.0831 7.33984C13.7089 7.33984 13.4106 7.3497 12.478 7.39276Z" fill="url(#paint1_radial_7482_105164)"/>
<defs>
<radialGradient id="paint0_radial_7482_105164" cx="0" cy="0" r="1" gradientUnits="userSpaceOnUse" gradientTransform="translate(9.66283 24.8969) scale(22.8252 22.8115)">
<stop offset="0.09" stop-color="#FA8F21"/>
<stop offset="0.78" stop-color="#D82D7E"/>
</radialGradient>
<radialGradient id="paint1_radial_7482_105164" cx="0" cy="0" r="1" gradientUnits="userSpaceOnUse" gradientTransform="translate(17.9437 25.6798) scale(17.9894 17.9786)">
<stop offset="0.64" stop-color="#8C3AAA" stop-opacity="0"/>
<stop offset="1" stop-color="#8C3AAA"/>
</radialGradient>
</defs>
</svg>
