<svg width="32" height="32" viewBox="0 0 32 32" fill="none" xmlns="http://www.w3.org/2000/svg">
<rect width="32" height="32" rx="8" fill="#EEFBFF"/>
<path d="M23.9411 10.8987C23.4127 11.1261 22.8573 11.2845 22.2884 11.3698C22.5544 11.3242 22.9457 10.8455 23.1015 10.6518C23.3381 10.3595 23.5185 10.0258 23.6334 9.66775C23.6334 9.64116 23.66 9.60317 23.6334 9.58417C23.62 9.57685 23.6049 9.57302 23.5897 9.57302C23.5744 9.57302 23.5594 9.57685 23.546 9.58417C22.9283 9.91867 22.2709 10.174 21.5893 10.344C21.5656 10.3513 21.5403 10.3519 21.5162 10.3459C21.4921 10.3399 21.4701 10.3274 21.4526 10.3098C21.3995 10.2467 21.3424 10.187 21.2816 10.1313C21.0036 9.8822 20.6882 9.67836 20.347 9.52718C19.8863 9.33819 19.3888 9.25635 18.8919 9.28782C18.4097 9.31827 17.939 9.4476 17.5089 9.66775C17.0854 9.89986 16.7132 10.2152 16.4147 10.5948C16.1007 10.9855 15.874 11.4389 15.7498 11.9245C15.6475 12.3865 15.6358 12.8639 15.7156 13.3303C15.7156 13.4101 15.7156 13.4215 15.6473 13.4101C12.9384 13.0111 10.7158 12.0499 8.89971 9.98689C8.81992 9.89571 8.77813 9.89571 8.71354 9.98689C7.92329 11.1875 8.30702 13.0871 9.29483 14.0255C9.42781 14.1509 9.56458 14.2725 9.70896 14.3865C9.25605 14.3543 8.8142 14.2316 8.4096 14.0255C8.33361 13.9762 8.29182 14.0027 8.28802 14.0939C8.27725 14.2203 8.27725 14.3474 8.28802 14.4739C8.3673 15.0797 8.60605 15.6536 8.97987 16.1369C9.35369 16.6202 9.84917 16.9955 10.4156 17.2246C10.5537 17.2837 10.6976 17.3283 10.8449 17.3575C10.4257 17.4401 9.99564 17.4529 9.57218 17.3955C9.481 17.3765 9.44681 17.4259 9.481 17.5133C10.0395 19.033 11.2515 19.4965 12.1405 19.7549C12.2621 19.7739 12.3837 19.7739 12.5204 19.8043C12.5204 19.8043 12.5204 19.8043 12.4976 19.8271C12.2355 20.3058 11.1755 20.6287 10.6892 20.7959C9.80153 21.1147 8.85515 21.2366 7.91569 21.153C7.76752 21.1302 7.73332 21.134 7.69533 21.153C7.65734 21.172 7.69533 21.2138 7.73712 21.2518C7.92709 21.3772 8.11705 21.4874 8.31462 21.5937C8.90276 21.9145 9.52455 22.1694 10.1687 22.3536C13.5045 23.273 17.2582 22.5968 19.7619 20.1082C21.7299 18.1554 22.4214 15.4617 22.4214 12.7642C22.4214 12.6616 22.5468 12.6008 22.619 12.5476C23.1169 12.1597 23.5558 11.7015 23.9221 11.1875C23.9856 11.1108 24.0181 11.0133 24.0133 10.9139V10.9139C24.0133 10.8569 24.0133 10.8683 23.9411 10.8987Z" fill="#33CCFF"/>
</svg>
